<?xml version="1.0" encoding="UTF-8"?>
<svg xmlns="http://www.w3.org/2000/svg" xmlns:xlink="http://www.w3.org/1999/xlink" width="250pt" height="250pt" viewBox="0 0 250 250" version="1.1">
<g id="surface1">
<path style=" stroke:none;fill-rule:evenodd;fill:rgb(83.137255%,93.333333%,98.823529%);fill-opacity:1;" d="M 108.78125 67.296875 L 103.273438 69.757812 L 103.273438 94.65625 L 114.191406 100.761719 C 126.417969 107.585938 125.414062 107.101562 125.457031 106.203125 L 125.484375 105.515625 L 125.613281 106.296875 L 125.734375 107.070312 L 147.886719 94.707031 L 147.886719 69.824219 L 136.769531 76.007812 C 128.640625 80.527344 125.632812 82.296875 125.566406 82.609375 C 125.488281 82.988281 125.480469 82.976562 125.453125 82.570312 C 125.433594 82.246094 114.722656 65.195312 114.335938 64.875 C 114.316406 64.851562 111.816406 65.945312 108.78125 67.296875 M 159.851562 97.285156 L 154.441406 99.707031 L 154.347656 124.6875 L 165.40625 130.828125 C 171.492188 134.210938 176.578125 136.984375 176.714844 136.984375 C 176.851562 136.984375 181.929688 134.210938 188.003906 130.828125 L 199.042969 124.6875 L 199.050781 112.234375 C 199.054688 100.429688 199.035156 99.785156 198.695312 99.96875 C 198.492188 100.078125 193.515625 102.851562 187.632812 106.132812 C 181.753906 109.421875 176.855469 112.128906 176.75 112.148438 C 176.648438 112.167969 174.113281 108.367188 171.117188 103.710938 C 168.121094 99.042969 165.578125 95.148438 165.464844 95.039062 C 165.335938 94.929688 163.117188 95.820312 159.851562 97.285156 M 60.171875 98.515625 L 54.722656 100.9375 L 54.714844 125.9375 L 65.753906 132.078125 C 71.828125 135.460938 76.90625 138.234375 77.039062 138.234375 C 77.175781 138.234375 82.265625 135.460938 88.351562 132.078125 L 99.40625 125.9375 L 99.421875 101.015625 L 97.8125 101.90625 C 96.925781 102.390625 91.894531 105.203125 86.632812 108.144531 C 79.4375 112.167969 77.003906 113.4375 76.828125 113.261719 C 76.695312 113.125 74.226562 109.316406 71.339844 104.796875 C 68.453125 100.265625 65.988281 96.453125 65.859375 96.328125 C 65.683594 96.152344 64.214844 96.71875 60.171875 98.515625 "/>
<path style=" stroke:none;fill-rule:evenodd;fill:rgb(1.568627%,83.137255%,83.137255%);fill-opacity:1;" d="M 125.488281 58.523438 L 114.417969 64.726562 L 117.660156 69.8125 C 119.445312 72.609375 121.933594 76.515625 123.199219 78.484375 C 124.460938 80.46875 125.5625 82.078125 125.648438 82.078125 C 125.734375 82.078125 128.359375 80.644531 131.488281 78.886719 C 134.617188 77.128906 139.46875 74.414062 142.273438 72.851562 C 145.078125 71.28125 147.496094 69.921875 147.648438 69.824219 C 147.910156 69.648438 137.019531 52.257812 136.679688 52.3125 C 136.609375 52.324219 131.570312 55.117188 125.488281 58.523438 M 199.101562 110.039062 C 199.074219 115.851562 199.125 120.644531 199.210938 120.695312 C 199.351562 120.78125 199.351562 112.851562 199.207031 103.234375 C 199.175781 101.164062 199.128906 104.226562 199.101562 110.039062 M 139.695312 114.355469 L 125.574219 122.234375 L 113.070312 115.265625 C 106.195312 111.425781 100.3125 108.15625 99.996094 108 L 99.421875 107.695312 L 99.421875 115.109375 L 112.371094 122.335938 C 119.492188 126.308594 125.296875 129.667969 125.269531 129.785156 C 125.238281 129.914062 125.46875 129.84375 125.773438 129.640625 C 126.085938 129.433594 132.570312 125.789062 140.183594 121.554688 L 154.023438 113.828125 L 154.082031 110.148438 C 154.113281 108.117188 154.066406 106.464844 153.976562 106.464844 C 153.890625 106.476562 147.464844 110.019531 139.695312 114.355469 M 63.648438 180.828125 L 63.648438 192.296875 L 64.691406 192.296875 L 64.691406 170.605469 L 71.714844 170.664062 L 78.738281 170.734375 L 80.113281 171.40625 C 84.722656 173.679688 85.542969 179.5625 81.730469 183 C 80.011719 184.539062 79.035156 184.796875 74.765625 184.796875 L 71.136719 184.796875 L 71.136719 186.023438 L 72.941406 186.085938 L 74.75 186.140625 L 75.699219 189.21875 C 76.621094 192.195312 76.667969 192.285156 77.21875 192.285156 C 77.953125 192.296875 77.953125 192.304688 76.875 188.90625 C 76.089844 186.4375 76.011719 186.046875 76.3125 186.046875 C 76.582031 186.046875 76.90625 186.777344 77.6875 189.171875 C 78.683594 192.195312 78.730469 192.296875 79.292969 192.296875 C 80.019531 192.296875 80.042969 192.5 78.914062 189.09375 C 78.21875 187.011719 78.015625 186.152344 78.179688 185.984375 C 78.488281 185.683594 78.410156 185.515625 79.652344 189.109375 C 80.738281 192.246094 80.765625 192.296875 81.371094 192.296875 C 82.078125 192.296875 82.144531 192.664062 80.699219 188.507812 C 79.863281 186.101562 79.757812 185.632812 80.027344 185.527344 C 80.425781 185.382812 80.242188 184.980469 81.582031 188.859375 C 82.710938 192.128906 82.742188 192.1875 83.371094 192.257812 L 84.011719 192.3125 L 82.773438 188.625 L 81.542969 184.921875 L 82.671875 183.90625 C 86.902344 180.136719 85.84375 172.871094 80.695312 170.351562 C 78.957031 169.5 77.671875 169.375 70.355469 169.375 L 63.648438 169.375 L 63.648438 180.828125 M 65.519531 181.867188 L 65.519531 192.296875 L 66.769531 192.296875 L 66.769531 172.703125 L 72.492188 172.703125 C 78.894531 172.703125 79.140625 172.753906 80.574219 174.121094 C 83.390625 176.828125 82.269531 181.492188 78.535156 182.609375 C 77.824219 182.820312 76.523438 182.921875 74.324219 182.921875 L 71.136719 182.921875 L 71.136719 183.984375 L 75.035156 183.914062 C 78.707031 183.859375 78.996094 183.828125 79.941406 183.339844 C 84.554688 180.976562 84.414062 174.367188 79.703125 172.039062 C 78.757812 171.570312 78.542969 171.5625 72.121094 171.503906 L 65.519531 171.4375 L 65.519531 181.867188 M 132.9375 171.789062 C 126.464844 173.535156 122.925781 180.5 125.457031 186.503906 C 130.109375 197.546875 146.453125 194.355469 146.453125 182.390625 C 146.453125 175.28125 139.679688 169.96875 132.9375 171.789062 M 112.269531 172.078125 C 106.972656 173.046875 104.253906 177.070312 106.15625 181.140625 C 107.390625 183.796875 109.425781 184.757812 114.332031 184.980469 C 117.429688 185.117188 118.144531 185.359375 118.144531 186.25 C 118.144531 187.695312 113.351562 188.222656 110.398438 187.089844 C 108.789062 186.484375 107.769531 186.921875 109.015625 187.695312 C 112.617188 189.921875 119.183594 189.003906 119.183594 186.269531 C 119.183594 184.460938 118.160156 183.9375 114.191406 183.742188 C 109.964844 183.523438 108.488281 182.910156 107.378906 180.90625 C 103.820312 174.460938 114.582031 170.410156 122.144531 175.351562 C 123.117188 175.976562 123.714844 175.195312 122.824219 174.460938 C 120.574219 172.609375 115.5625 171.476562 112.269531 172.078125 M 87.359375 182.390625 L 87.359375 192.296875 L 88.402344 192.296875 L 88.402344 172.5 L 87.359375 172.5 L 87.359375 182.390625 M 89.230469 182.390625 L 89.230469 192.296875 L 90.480469 192.296875 L 90.480469 172.5 L 89.230469 172.5 L 89.230469 182.390625 M 91.3125 182.390625 L 91.3125 192.296875 L 92.351562 192.296875 L 92.351562 172.5 L 91.3125 172.5 L 91.3125 182.390625 M 93.183594 182.390625 L 93.183594 192.296875 L 103.789062 192.296875 L 103.789062 191.25 L 99.109375 191.25 C 94.570312 191.25 94.429688 191.242188 94.429688 190.828125 C 94.429688 190.429688 94.570312 190.421875 99.109375 190.421875 L 103.789062 190.421875 L 103.789062 189.171875 L 99.109375 189.171875 C 94.570312 189.171875 94.429688 189.148438 94.429688 188.75 C 94.429688 188.351562 94.570312 188.328125 99.109375 188.328125 L 103.789062 188.328125 L 103.789062 187.296875 L 94.429688 187.296875 L 94.429688 185.007812 L 98.855469 184.953125 L 103.273438 184.890625 L 103.339844 184.328125 L 103.40625 183.75 L 98.917969 183.75 C 94.570312 183.75 94.429688 183.742188 94.429688 183.328125 C 94.429688 182.929688 94.570312 182.921875 98.902344 182.921875 L 103.378906 182.921875 L 103.378906 181.875 L 98.902344 181.875 C 94.585938 181.875 94.429688 181.867188 94.429688 181.464844 C 94.429688 181.0625 94.605469 181.046875 98.855469 180.996094 L 103.273438 180.9375 L 103.339844 180.359375 L 103.40625 179.796875 L 94.429688 179.796875 L 94.429688 177.5 L 103.789062 177.5 L 103.789062 176.453125 L 99.109375 176.453125 C 94.570312 176.453125 94.429688 176.445312 94.429688 176.046875 C 94.429688 175.632812 94.570312 175.625 99.109375 175.625 L 103.789062 175.625 L 103.789062 174.375 L 99.109375 174.375 C 94.570312 174.375 94.429688 174.367188 94.429688 173.953125 C 94.429688 173.554688 94.570312 173.546875 99.109375 173.546875 L 103.789062 173.546875 L 103.789062 172.5 L 93.183594 172.5 L 93.183594 182.390625 M 148.71875 182.390625 L 148.71875 192.296875 L 149.761719 192.296875 L 149.761719 173.546875 L 156.164062 173.546875 C 161.203125 173.546875 162.824219 173.613281 163.773438 173.859375 C 169.796875 175.429688 170.585938 183.300781 164.992188 186.074219 C 164.085938 186.515625 163.699219 186.5625 160.105469 186.632812 L 156.207031 186.699219 L 156.207031 187.296875 C 156.207031 187.898438 156.210938 187.898438 157.683594 187.960938 L 159.164062 188.015625 L 159.941406 190.109375 C 160.679688 192.089844 160.75 192.1875 161.367188 192.257812 L 162.015625 192.3125 L 161.417969 190.695312 C 161.089844 189.796875 160.71875 188.808594 160.597656 188.484375 C 160.410156 188 160.429688 187.921875 160.746094 187.921875 C 161.023438 187.921875 161.308594 188.457031 161.914062 190.109375 C 162.671875 192.1875 162.742188 192.296875 163.308594 192.296875 C 164.050781 192.296875 164.054688 192.324219 163.175781 190.148438 C 162.367188 188.144531 162.324219 187.921875 162.722656 187.921875 C 162.882812 187.921875 163.363281 188.828125 163.84375 190.046875 C 164.652344 192.109375 164.710938 192.1875 165.359375 192.257812 C 165.859375 192.304688 166.011719 192.246094 165.925781 192.050781 C 164.414062 188.339844 164.167969 187.5 164.601562 187.5 C 164.765625 187.5 165.253906 188.46875 165.785156 189.8125 C 166.699219 192.148438 166.871094 192.382812 167.609375 192.257812 C 167.988281 192.195312 167.945312 192.011719 167.003906 189.578125 C 166.296875 187.773438 166.0625 186.953125 166.242188 186.894531 C 166.382812 186.84375 166.988281 186.335938 167.589844 185.773438 C 171.53125 182.039062 170.398438 175.507812 165.40625 173.164062 L 164.21875 172.609375 L 148.71875 172.492188 L 148.71875 182.390625 M 171.429688 172.96875 L 171.496094 173.4375 L 179.039062 173.496094 L 186.578125 173.546875 L 186.578125 172.5 L 171.363281 172.5 L 171.429688 172.96875 M 138.585938 173.144531 C 145.300781 175.390625 147.546875 183.847656 142.785156 188.945312 C 137.492188 194.617188 128.09375 192.324219 126.160156 184.890625 C 124.230469 177.480469 131.367188 170.722656 138.585938 173.144531 M 67.597656 182.8125 L 67.597656 192.296875 L 68.640625 192.296875 L 68.640625 174.5625 L 73.410156 174.628906 C 78.648438 174.695312 78.703125 174.707031 79.753906 176.125 C 80.636719 177.304688 80.109375 179.609375 78.769531 180.429688 C 78.179688 180.78125 77.707031 180.828125 74.617188 180.828125 L 71.136719 180.828125 L 71.136719 182.078125 L 74.433594 182.078125 C 79.640625 182.078125 81.3125 181.035156 81.324219 177.742188 C 81.339844 174.210938 79.558594 173.328125 72.394531 173.328125 L 67.597656 173.328125 L 67.597656 182.8125 M 134.015625 173.554688 C 127.074219 174.746094 124.269531 183.4375 129.164062 188.625 C 133.894531 193.632812 142.5 191.398438 144.238281 184.695312 C 145.882812 178.367188 140.457031 172.460938 134.015625 173.554688 M 111.167969 174.367188 C 107.945312 175.421875 106.628906 178.398438 108.28125 180.898438 C 109.195312 182.285156 110.566406 182.753906 114.246094 182.9375 C 118.695312 183.164062 120.015625 183.9375 120.015625 186.289062 C 120.019531 189.773438 113.074219 190.9375 108.453125 188.234375 L 107.589844 187.726562 L 107.207031 188.144531 C 106.878906 188.507812 106.867188 188.59375 107.128906 188.769531 C 111.984375 192.011719 119.523438 191.375 120.960938 187.597656 C 122.25 184.226562 119.992188 182.117188 114.816406 181.867188 C 110.136719 181.621094 108.78125 180.867188 108.78125 178.476562 C 108.78125 175.136719 115.222656 173.875 119.878906 176.320312 C 121.0625 176.933594 121.621094 176.945312 121.824219 176.335938 C 121.917969 176.054688 120.265625 175.070312 118.847656 174.550781 C 117.035156 173.898438 112.910156 173.796875 111.167969 174.367188 M 150.589844 183.320312 L 150.589844 192.296875 L 151.839844 192.296875 L 151.839844 175.625 L 163.234375 175.625 L 164.320312 176.203125 C 167.6875 177.976562 167.640625 182.414062 164.238281 184.226562 C 163.472656 184.640625 163.007812 184.6875 159.796875 184.757812 L 156.207031 184.824219 L 156.207031 185.828125 L 159.902344 185.828125 C 164.191406 185.828125 164.992188 185.59375 166.542969 183.90625 C 169.066406 181.152344 168.292969 176.972656 164.914062 175.097656 L 163.800781 174.484375 L 157.199219 174.414062 L 150.589844 174.34375 L 150.589844 183.320312 M 171.429688 174.953125 L 171.496094 175.515625 L 186.472656 175.515625 L 186.539062 174.953125 L 186.605469 174.375 L 171.367188 174.375 L 171.429688 174.953125 M 138.800781 175.371094 C 145.273438 178.398438 144.648438 187.695312 137.828125 189.824219 C 131.394531 191.816406 125.59375 185 128.621094 179.003906 C 130.585938 175.136719 134.960938 173.5625 138.800781 175.371094 M 69.472656 183.835938 L 69.472656 192.296875 L 70.71875 192.296875 L 70.71875 176.671875 L 74.214844 176.671875 C 77.953125 176.671875 78.210938 176.738281 78.203125 177.695312 C 78.199219 178.808594 78.066406 178.847656 74.46875 178.914062 L 71.136719 178.984375 L 71.136719 180 L 74.625 180 C 78.941406 180 79.796875 179.492188 79.367188 177.207031 C 79.078125 175.644531 78.703125 175.527344 73.824219 175.460938 L 69.472656 175.390625 L 69.472656 183.835938 M 133.300781 175.75 C 128.386719 177.453125 126.996094 184.265625 130.882812 187.597656 C 135.921875 191.921875 143.289062 187.921875 142.460938 181.320312 C 141.9375 177.195312 137.292969 174.375 133.300781 175.75 M 112.386719 176.035156 C 110.523438 176.4375 109.617188 177.257812 109.617188 178.546875 C 109.617188 180.351562 110.648438 180.859375 114.710938 181.046875 C 119.605469 181.257812 121.585938 182.519531 122.019531 185.683594 C 122.804688 191.414062 113.410156 193.710938 106.65625 189.421875 C 105.691406 188.808594 105.097656 189.589844 105.980469 190.3125 C 111.933594 195.265625 122.75 192.851562 123.101562 186.492188 C 123.335938 182.140625 120.695312 180.085938 114.472656 179.8125 C 111.375 179.679688 110.65625 179.433594 110.65625 178.546875 C 110.65625 177.078125 115.441406 176.5625 118.402344 177.695312 C 119.480469 178.105469 119.636719 178.125 120.042969 177.84375 C 121.429688 176.867188 115.28125 175.421875 112.386719 176.035156 M 152.671875 184.375 L 152.671875 192.296875 L 153.710938 192.296875 L 153.710938 177.5 L 158.066406 177.5 C 163.371094 177.5 164.515625 177.871094 164.851562 179.6875 C 165.277344 181.953125 163.957031 182.703125 159.589844 182.703125 L 156.207031 182.703125 L 156.207031 183.953125 L 159.589844 183.953125 C 163.25 183.945312 164.113281 183.75 165.085938 182.6875 C 166.785156 180.828125 165.992188 177.578125 163.628906 176.679688 C 163.273438 176.542969 161.015625 176.453125 157.855469 176.453125 L 152.671875 176.453125 L 152.671875 184.375 M 171.429688 176.921875 L 171.496094 177.390625 L 179.039062 177.453125 L 186.578125 177.507812 L 186.578125 176.453125 L 171.363281 176.453125 L 171.429688 176.921875 M 138.015625 177.15625 C 141.566406 178.820312 142.492188 183.300781 139.882812 186.203125 C 136.355469 190.125 130.152344 187.949219 129.832031 182.675781 C 129.570312 178.359375 134.082031 175.320312 138.015625 177.15625 M 134.472656 177.492188 C 130.457031 178.46875 129.257812 183.445312 132.378906 186.191406 C 134.929688 188.445312 138.738281 187.546875 140.175781 184.375 C 141.824219 180.722656 138.355469 176.542969 134.472656 177.492188 M 175.34375 185.109375 L 175.34375 192.296875 L 176.59375 192.296875 L 176.59375 177.921875 L 175.34375 177.921875 L 175.34375 185.109375 M 177.421875 185.109375 L 177.421875 192.296875 L 178.671875 192.296875 L 178.671875 177.921875 L 177.421875 177.921875 L 177.421875 185.109375 M 179.296875 185.109375 L 179.296875 192.296875 L 180.542969 192.296875 L 180.542969 177.921875 L 179.296875 177.921875 L 179.296875 185.109375 M 181.378906 185.109375 L 181.378906 192.296875 L 182.625 192.296875 L 182.625 177.921875 L 181.378906 177.921875 L 181.378906 185.109375 M 154.546875 185.3125 L 154.546875 192.296875 L 155.792969 192.296875 L 155.792969 179.570312 L 159.273438 179.628906 C 162.488281 179.6875 162.757812 179.71875 162.828125 180.078125 C 162.953125 180.722656 162.480469 180.828125 159.277344 180.828125 L 156.207031 180.828125 L 156.207031 181.875 L 159.617188 181.875 C 163.480469 181.875 163.820312 181.757812 164.042969 180.371094 C 164.148438 179.707031 164.078125 179.523438 163.53125 178.964844 L 162.894531 178.328125 L 154.546875 178.328125 L 154.546875 185.3125 M 137.019531 178.859375 C 140.070312 180.136719 140.183594 184.492188 137.203125 185.851562 C 133.476562 187.546875 130.035156 183.09375 132.652344 179.980469 C 133.730469 178.691406 135.519531 178.234375 137.019531 178.859375 "/>
<path style=" stroke:none;fill-rule:evenodd;fill:rgb(1.568627%,16.862745%,54.901961%);fill-opacity:1;" d="M 122.097656 31.5625 C 120.210938 32.625 110.148438 38.234375 99.734375 44.042969 L 80.808594 54.589844 L 80.703125 70.664062 L 80.601562 86.738281 L 78.734375 87.585938 C 76.953125 88.398438 54.859375 100.625 55.175781 100.625 C 55.261719 100.625 57.644531 99.589844 60.472656 98.328125 C 63.300781 97.070312 65.683594 96.0625 65.761719 96.09375 C 65.84375 96.125 68.308594 99.890625 71.246094 104.484375 C 74.179688 109.0625 76.699219 112.9375 76.84375 113.085938 C 77.042969 113.289062 98.015625 102 99.363281 100.957031 C 99.386719 100.9375 97.917969 98.585938 96.101562 95.734375 L 92.796875 90.539062 L 93.355469 90.203125 C 93.664062 90.019531 95.996094 88.71875 98.542969 87.304688 L 103.167969 84.746094 L 103.171875 77.21875 L 103.171875 69.6875 L 103.949219 69.257812 C 104.378906 69.023438 109.394531 66.21875 115.101562 63.039062 C 126.582031 56.632812 136.394531 51.914062 136.960938 52.53125 C 137.101562 52.6875 137.878906 53.847656 138.683594 55.109375 C 139.488281 56.367188 141.933594 60.1875 144.121094 63.601562 L 148.089844 69.804688 L 148.144531 77.3125 L 148.199219 84.835938 L 152.628906 87.304688 C 156.953125 89.726562 157.640625 90.109375 162.3125 92.664062 L 164.5625 93.90625 L 160.175781 96.347656 C 157.765625 97.695312 155.792969 98.828125 155.792969 98.867188 C 155.792969 99.132812 166.074219 94.414062 168.609375 93 C 169.964844 92.226562 174.683594 89.601562 179.089844 87.140625 C 183.492188 84.679688 187.183594 82.585938 187.292969 82.480469 C 187.402344 82.375 185.90625 83 183.96875 83.867188 C 180.460938 85.429688 180.09375 85.59375 177.335938 86.867188 C 176.546875 87.234375 175.234375 87.910156 174.425781 88.378906 C 173.613281 88.847656 172.671875 89.367188 172.328125 89.539062 C 171.988281 89.71875 171.449219 90.039062 171.132812 90.253906 L 170.558594 90.65625 L 170.558594 72.742188 C 170.558594 58.671875 170.503906 54.796875 170.300781 54.628906 C 170.15625 54.511719 161.382812 49.589844 150.800781 43.703125 C 140.21875 37.804688 130.390625 32.324219 128.960938 31.523438 C 127.53125 30.722656 126.171875 29.96875 125.941406 29.851562 C 125.601562 29.6875 124.925781 29.980469 122.097656 31.5625 "/>
<path style=" stroke:none;fill-rule:evenodd;fill:rgb(1.568627%,42.352941%,86.27451%);fill-opacity:1;" d="M 130.523438 54.980469 C 125.8125 57.109375 105.488281 68.066406 104.519531 68.992188 C 104.28125 69.21875 106.214844 68.398438 110.9375 66.28125 C 112.75 65.460938 114.339844 64.851562 114.472656 64.929688 C 114.605469 65 114.644531 64.992188 114.5625 64.902344 C 114.449219 64.773438 128.839844 56.582031 135.726562 52.851562 C 137.316406 51.992188 135.46875 52.742188 130.523438 54.980469 M 187.292969 82.480469 C 187.183594 82.585938 183.492188 84.679688 179.089844 87.140625 C 174.683594 89.601562 169.910156 92.265625 168.480469 93.066406 C 167.050781 93.867188 165.773438 94.5625 165.644531 94.601562 C 165.4375 94.679688 175.851562 111.21875 176.527344 111.894531 C 176.722656 112.089844 195.851562 101.726562 198.808594 99.824219 C 199.007812 99.695312 198.03125 98.007812 194.949219 93.210938 C 192.679688 89.667969 190.179688 85.761719 189.394531 84.53125 C 188.019531 82.363281 187.714844 82.070312 187.292969 82.480469 M 97.96875 87.625 C 95.164062 89.1875 92.855469 90.476562 92.832031 90.5 C 92.808594 90.515625 94.28125 92.871094 96.109375 95.734375 L 99.421875 100.9375 L 99.421875 107.65625 L 112.5 114.941406 L 125.574219 122.226562 L 139.847656 114.289062 L 154.117188 106.359375 L 154.125 103.078125 L 154.128906 99.804688 L 154.753906 99.484375 C 155.089844 99.304688 155.441406 99.148438 155.53125 99.132812 C 155.617188 99.121094 155.789062 98.964844 155.917969 98.789062 C 156.054688 98.601562 156.25 98.546875 156.417969 98.640625 C 156.570312 98.742188 156.640625 98.730469 156.570312 98.625 C 156.507812 98.515625 158.277344 97.414062 160.507812 96.164062 L 164.5625 93.898438 L 162.308594 92.664062 C 157.640625 90.109375 156.953125 89.726562 152.628906 87.304688 L 148.199219 84.835938 L 148.144531 89.757812 L 148.085938 94.6875 L 137.261719 100.734375 C 131.304688 104.054688 126.214844 106.855469 125.949219 106.960938 C 125.546875 107.117188 124.011719 106.328125 115.832031 101.757812 C 110.527344 98.796875 105.507812 96.007812 104.679688 95.554688 L 103.175781 94.726562 L 103.121094 89.757812 L 103.066406 84.796875 L 97.96875 87.625 M 140.195312 121.554688 C 132.585938 125.800781 126.1875 129.375 125.980469 129.5 C 125.660156 129.6875 126.417969 130.175781 130.867188 132.65625 C 133.765625 134.265625 143.8125 139.863281 153.191406 145.097656 C 162.570312 150.320312 170.398438 154.5625 170.582031 154.511719 C 170.761719 154.472656 180.214844 149.25 191.589844 142.898438 C 202.960938 136.5625 212.949219 131.007812 213.78125 130.546875 C 215.253906 129.734375 215.285156 129.707031 214.820312 129.433594 C 214.558594 129.277344 210.929688 127.246094 206.75 124.914062 L 199.160156 120.671875 L 199.101562 122.714844 L 199.039062 124.757812 L 188.128906 130.828125 C 182.125 134.179688 177.046875 136.953125 176.847656 137.011719 C 176.558594 137.089844 156.941406 126.386719 154.601562 124.882812 C 154.140625 124.578125 154.136719 124.511719 154.082031 119.199219 L 154.023438 113.828125 L 140.195312 121.554688 M 99.421875 120.59375 L 99.421875 125.976562 L 88.300781 132.167969 C 82.179688 135.578125 77.042969 138.339844 76.882812 138.300781 C 76.722656 138.261719 71.621094 135.460938 65.550781 132.078125 L 54.515625 125.9375 L 54.453125 122.648438 L 54.394531 119.355469 L 45.273438 124.433594 C 40.261719 127.226562 36.175781 129.601562 36.195312 129.707031 C 36.21875 129.8125 40.089844 132.039062 44.796875 134.667969 C 49.503906 137.285156 59.464844 142.84375 66.929688 147.011719 C 74.398438 151.171875 80.605469 154.578125 80.726562 154.578125 C 80.851562 154.578125 89.808594 149.648438 100.640625 143.613281 C 125.878906 129.550781 125.488281 129.773438 125.285156 129.578125 C 125.082031 129.382812 99.65625 115.203125 99.515625 115.203125 C 99.464844 115.203125 99.421875 117.636719 99.421875 120.59375 "/>
<path style=" stroke:none;fill-rule:evenodd;fill:rgb(61.176471%,80%,95.686275%);fill-opacity:1;" d="M 147.984375 82.296875 C 147.984375 89.226562 148.011719 92.0625 148.042969 88.59375 C 148.074219 85.125 148.074219 79.453125 148.042969 75.984375 C 148.011719 72.519531 147.984375 75.359375 147.984375 82.296875 M 154.222656 99.84375 C 154.167969 99.992188 154.148438 105.632812 154.179688 112.390625 L 154.234375 124.6875 L 154.335938 112.140625 C 154.394531 105.234375 154.414062 99.578125 154.382812 99.578125 C 154.351562 99.578125 154.28125 99.695312 154.222656 99.84375 M 54.59375 113.546875 C 54.59375 120.476562 54.621094 123.3125 54.652344 119.84375 C 54.683594 116.375 54.683594 110.703125 54.652344 107.234375 C 54.621094 103.769531 54.59375 106.609375 54.59375 113.546875 M 125.386719 106.359375 C 125.339844 106.757812 125.375 107.078125 125.46875 107.078125 C 125.558594 107.078125 125.632812 106.757812 125.632812 106.359375 C 125.632812 105.957031 125.597656 105.625 125.550781 105.625 C 125.507812 105.625 125.433594 105.957031 125.386719 106.359375 "/>
</g>
</svg>
